<mxfile host="Electron" modified="2023-10-10T12:39:03.007Z" agent="Mozilla/5.0 (Windows NT 10.0; Win64; x64) AppleWebKit/537.36 (KHTML, like Gecko) draw.io/21.6.1 Chrome/112.0.5615.204 Electron/24.6.1 Safari/537.36" etag="Au9wIgcRqlDO7LbDKYO3" version="21.6.1" type="device">
  <diagram name="Page-1" id="SmXYeL52s2CfzjQr3O0h">
    <mxGraphModel dx="1036" dy="606" grid="1" gridSize="10" guides="1" tooltips="1" connect="1" arrows="1" fold="1" page="1" pageScale="1" pageWidth="850" pageHeight="1100" math="0" shadow="0">
      <root>
        <mxCell id="0" />
        <mxCell id="1" parent="0" />
        <mxCell id="djR4J-DLp6pO6Vdt1Eoc-52" value="&lt;b&gt;&lt;font style=&quot;font-size: 18px;&quot;&gt;EC-BOS-8&lt;/font&gt;&lt;/b&gt;" style="rounded=0;whiteSpace=wrap;html=1;fillColor=#1d3d86;" parent="1" vertex="1">
          <mxGeometry x="380" y="150" width="421" height="220" as="geometry" />
        </mxCell>
        <mxCell id="WzIMAAQ_V0X0fUGe2neu-1" value="&lt;b&gt;&lt;font style=&quot;font-size: 18px;&quot;&gt;EC-BOS-8&lt;/font&gt;&lt;/b&gt;" style="rounded=0;whiteSpace=wrap;html=1;fillColor=#808080;" vertex="1" parent="1">
          <mxGeometry x="530" y="150" width="270" height="220" as="geometry" />
        </mxCell>
        <mxCell id="djR4J-DLp6pO6Vdt1Eoc-22" value="&lt;font style=&quot;font-size: 18px;&quot;&gt;ROUTER&lt;/font&gt;" style="rounded=1;whiteSpace=wrap;html=1;fontStyle=1;fillColor=#817e7e;" parent="1" vertex="1">
          <mxGeometry x="70" y="200" width="280" height="160" as="geometry" />
        </mxCell>
        <mxCell id="djR4J-DLp6pO6Vdt1Eoc-23" value="&lt;span&gt;Port:1&lt;/span&gt;" style="rounded=1;whiteSpace=wrap;html=1;rotation=-90;fontStyle=1" parent="1" vertex="1">
          <mxGeometry x="140" y="330" width="70" height="30" as="geometry" />
        </mxCell>
        <mxCell id="djR4J-DLp6pO6Vdt1Eoc-24" value="Port: 2" style="rounded=1;whiteSpace=wrap;html=1;rotation=-90;fontStyle=1" parent="1" vertex="1">
          <mxGeometry x="170" y="330" width="70" height="30" as="geometry" />
        </mxCell>
        <mxCell id="djR4J-DLp6pO6Vdt1Eoc-25" value="Port: 3" style="rounded=1;whiteSpace=wrap;html=1;rotation=-90;fontStyle=1" parent="1" vertex="1">
          <mxGeometry x="200" y="330" width="70" height="30" as="geometry" />
        </mxCell>
        <mxCell id="djR4J-DLp6pO6Vdt1Eoc-26" value="Port: 4" style="rounded=1;whiteSpace=wrap;html=1;rotation=-90;fontStyle=1" parent="1" vertex="1">
          <mxGeometry x="230" y="330" width="70" height="30" as="geometry" />
        </mxCell>
        <mxCell id="djR4J-DLp6pO6Vdt1Eoc-27" value="Port: 5" style="rounded=1;whiteSpace=wrap;html=1;rotation=-90;fontStyle=1" parent="1" vertex="1">
          <mxGeometry x="260" y="330" width="70" height="30" as="geometry" />
        </mxCell>
        <mxCell id="djR4J-DLp6pO6Vdt1Eoc-29" value="" style="ellipse;whiteSpace=wrap;html=1;aspect=fixed;direction=south;fontStyle=1" parent="1" vertex="1">
          <mxGeometry x="110" y="340" width="20" height="20" as="geometry" />
        </mxCell>
        <mxCell id="djR4J-DLp6pO6Vdt1Eoc-30" value="Power" style="text;html=1;align=center;verticalAlign=middle;resizable=0;points=[];autosize=1;strokeColor=none;fillColor=none;fontStyle=1" parent="1" vertex="1">
          <mxGeometry x="90" y="317" width="60" height="30" as="geometry" />
        </mxCell>
        <mxCell id="djR4J-DLp6pO6Vdt1Eoc-41" value="" style="rounded=0;whiteSpace=wrap;html=1;strokeColor=#BABA00;fillColor=#BABA00;rotation=-90;fontStyle=1" parent="1" vertex="1">
          <mxGeometry x="150.47" y="397.03" width="49.06" height="10" as="geometry" />
        </mxCell>
        <mxCell id="djR4J-DLp6pO6Vdt1Eoc-42" value="" style="rounded=0;whiteSpace=wrap;html=1;strokeColor=#BABA00;fillColor=#BABA00;rotation=-180;fontStyle=1" parent="1" vertex="1">
          <mxGeometry x="97.5" y="417" width="82.5" height="10" as="geometry" />
        </mxCell>
        <mxCell id="djR4J-DLp6pO6Vdt1Eoc-44" value="&lt;span style=&quot;font-size: 10px;&quot;&gt;&lt;span&gt;Port 1:&lt;br&gt;Customer&amp;nbsp;&lt;br&gt;Network&lt;/span&gt;&lt;br&gt;&lt;/span&gt;" style="text;html=1;align=center;verticalAlign=middle;resizable=0;points=[];autosize=1;strokeColor=none;fillColor=none;fontStyle=1" parent="1" vertex="1">
          <mxGeometry x="27.5" y="392" width="70" height="60" as="geometry" />
        </mxCell>
        <mxCell id="djR4J-DLp6pO6Vdt1Eoc-45" value="" style="rounded=0;whiteSpace=wrap;html=1;strokeColor=#14BA1A;fillColor=#14BA1A;rotation=-90;fontStyle=1" parent="1" vertex="1">
          <mxGeometry x="170.47" y="407.5" width="70" height="10" as="geometry" />
        </mxCell>
        <mxCell id="djR4J-DLp6pO6Vdt1Eoc-46" value="" style="rounded=0;whiteSpace=wrap;html=1;strokeColor=#14BA1A;fillColor=#14BA1A;rotation=0;fontStyle=1" parent="1" vertex="1">
          <mxGeometry x="201" y="437" width="509" height="10" as="geometry" />
        </mxCell>
        <mxCell id="djR4J-DLp6pO6Vdt1Eoc-47" value="" style="rounded=0;whiteSpace=wrap;html=1;strokeColor=#14BA1A;fillColor=#14BA1A;rotation=-90;fontStyle=1" parent="1" vertex="1">
          <mxGeometry x="670" y="397.5" width="70" height="10" as="geometry" />
        </mxCell>
        <mxCell id="djR4J-DLp6pO6Vdt1Eoc-48" value="" style="rounded=0;whiteSpace=wrap;html=1;strokeColor=#3399FF;fillColor=#007FFF;rotation=-90;fontStyle=1" parent="1" vertex="1">
          <mxGeometry x="169.76" y="436.76" width="129.53" height="10" as="geometry" />
        </mxCell>
        <mxCell id="djR4J-DLp6pO6Vdt1Eoc-49" value="" style="rounded=0;whiteSpace=wrap;html=1;strokeColor=#3399FF;fillColor=#007FFF;rotation=-90;fontStyle=1" parent="1" vertex="1">
          <mxGeometry x="201" y="437" width="129.53" height="10" as="geometry" />
        </mxCell>
        <mxCell id="djR4J-DLp6pO6Vdt1Eoc-50" value="" style="rounded=0;whiteSpace=wrap;html=1;strokeColor=#3399FF;fillColor=#007FFF;rotation=-90;fontStyle=1" parent="1" vertex="1">
          <mxGeometry x="230.23" y="437" width="129.53" height="10" as="geometry" />
        </mxCell>
        <mxCell id="djR4J-DLp6pO6Vdt1Eoc-51" value="&lt;font style=&quot;font-size: 14px;&quot;&gt;&lt;span&gt;Ports 3+:&lt;br&gt;Switches/Controllers&lt;/span&gt;&lt;/font&gt;" style="text;html=1;align=center;verticalAlign=middle;resizable=0;points=[];autosize=1;strokeColor=none;fillColor=none;fontStyle=1" parent="1" vertex="1">
          <mxGeometry x="185.76" y="505" width="160" height="50" as="geometry" />
        </mxCell>
        <mxCell id="djR4J-DLp6pO6Vdt1Eoc-54" value="" style="html=1;verticalLabelPosition=bottom;align=center;labelBackgroundColor=#ffffff;verticalAlign=top;strokeWidth=2;strokeColor=#0080F0;shadow=0;dashed=0;shape=mxgraph.ios7.icons.wifi;pointerEvents=1" parent="1" vertex="1">
          <mxGeometry x="433" y="312.5" width="45" height="34.5" as="geometry" />
        </mxCell>
        <mxCell id="djR4J-DLp6pO6Vdt1Eoc-55" value="Eth: Lan 2" style="rounded=1;whiteSpace=wrap;html=1;rotation=-90;fontStyle=1" parent="1" vertex="1">
          <mxGeometry x="670" y="321.5" width="70" height="30" as="geometry" />
        </mxCell>
        <mxCell id="djR4J-DLp6pO6Vdt1Eoc-56" value="&lt;span&gt;Eth: Lan 1&lt;/span&gt;" style="rounded=1;whiteSpace=wrap;html=1;rotation=-90;fontStyle=1" parent="1" vertex="1">
          <mxGeometry x="640" y="321.5" width="70" height="30" as="geometry" />
        </mxCell>
        <mxCell id="djR4J-DLp6pO6Vdt1Eoc-58" value="USB" style="rounded=0;whiteSpace=wrap;html=1;" parent="1" vertex="1">
          <mxGeometry x="741" y="250" width="60" height="20" as="geometry" />
        </mxCell>
        <mxCell id="djR4J-DLp6pO6Vdt1Eoc-59" value="" style="rounded=0;whiteSpace=wrap;html=1;" parent="1" vertex="1">
          <mxGeometry x="801" y="236.5" width="10" height="47" as="geometry" />
        </mxCell>
        <mxCell id="djR4J-DLp6pO6Vdt1Eoc-60" value="" style="rounded=0;whiteSpace=wrap;html=1;" parent="1" vertex="1">
          <mxGeometry x="370" y="236.5" width="10" height="47" as="geometry" />
        </mxCell>
        <mxCell id="djR4J-DLp6pO6Vdt1Eoc-61" value="&lt;font style=&quot;font-size: 6px;&quot;&gt;S&lt;/font&gt;" style="rounded=0;whiteSpace=wrap;html=1;rotation=90;" parent="1" vertex="1">
          <mxGeometry x="415.5" y="190" width="60" height="10" as="geometry" />
        </mxCell>
        <mxCell id="djR4J-DLp6pO6Vdt1Eoc-62" value="&lt;font style=&quot;font-size: 6px;&quot;&gt;24V Common&lt;/font&gt;" style="rounded=0;whiteSpace=wrap;html=1;rotation=90;" parent="1" vertex="1">
          <mxGeometry x="435.5" y="190" width="60" height="10" as="geometry" />
        </mxCell>
        <mxCell id="djR4J-DLp6pO6Vdt1Eoc-63" value="&lt;font style=&quot;font-size: 6px;&quot;&gt;24 V+&lt;/font&gt;" style="rounded=0;whiteSpace=wrap;html=1;rotation=90;" parent="1" vertex="1">
          <mxGeometry x="425" y="190" width="60" height="10" as="geometry" />
        </mxCell>
        <mxCell id="djR4J-DLp6pO6Vdt1Eoc-65" value="-" style="rounded=0;whiteSpace=wrap;html=1;rotation=90;" parent="1" vertex="1">
          <mxGeometry x="455.5" y="150" width="20" height="10" as="geometry" />
        </mxCell>
        <mxCell id="djR4J-DLp6pO6Vdt1Eoc-66" value="+" style="rounded=0;whiteSpace=wrap;html=1;rotation=90;" parent="1" vertex="1">
          <mxGeometry x="445.5" y="150" width="20" height="10" as="geometry" />
        </mxCell>
        <mxCell id="djR4J-DLp6pO6Vdt1Eoc-67" value="" style="rounded=0;whiteSpace=wrap;html=1;rotation=90;" parent="1" vertex="1">
          <mxGeometry x="435.5" y="150" width="20" height="10" as="geometry" />
        </mxCell>
        <mxCell id="djR4J-DLp6pO6Vdt1Eoc-72" value="&lt;font style=&quot;font-size: 6px;&quot;&gt;TS1-2&lt;/font&gt;" style="rounded=0;whiteSpace=wrap;html=1;rotation=-91;" parent="1" vertex="1">
          <mxGeometry x="445" y="80" width="20" height="10" as="geometry" />
        </mxCell>
        <mxCell id="djR4J-DLp6pO6Vdt1Eoc-73" value="&lt;font style=&quot;font-size: 6px;&quot;&gt;TS1-1&lt;/font&gt;" style="rounded=0;whiteSpace=wrap;html=1;rotation=-90;" parent="1" vertex="1">
          <mxGeometry x="455.5" y="80" width="20" height="10" as="geometry" />
        </mxCell>
        <mxCell id="djR4J-DLp6pO6Vdt1Eoc-75" value="" style="endArrow=none;html=1;rounded=0;entryX=0;entryY=0.5;entryDx=0;entryDy=0;exitX=0;exitY=0.5;exitDx=0;exitDy=0;" parent="1" source="djR4J-DLp6pO6Vdt1Eoc-66" target="djR4J-DLp6pO6Vdt1Eoc-72" edge="1">
          <mxGeometry width="50" height="50" relative="1" as="geometry">
            <mxPoint x="520" y="160" as="sourcePoint" />
            <mxPoint x="570" y="110" as="targetPoint" />
          </mxGeometry>
        </mxCell>
        <mxCell id="djR4J-DLp6pO6Vdt1Eoc-76" value="" style="endArrow=none;html=1;rounded=0;entryX=0;entryY=0.5;entryDx=0;entryDy=0;exitX=0;exitY=0.5;exitDx=0;exitDy=0;" parent="1" source="djR4J-DLp6pO6Vdt1Eoc-65" target="djR4J-DLp6pO6Vdt1Eoc-73" edge="1">
          <mxGeometry width="50" height="50" relative="1" as="geometry">
            <mxPoint x="466" y="140" as="sourcePoint" />
            <mxPoint x="465" y="105" as="targetPoint" />
          </mxGeometry>
        </mxCell>
        <mxCell id="djR4J-DLp6pO6Vdt1Eoc-77" value="" style="rounded=0;whiteSpace=wrap;html=1;rotation=90;" parent="1" vertex="1">
          <mxGeometry x="450" y="351.5" width="10" height="37.03" as="geometry" />
        </mxCell>
        <mxCell id="djR4J-DLp6pO6Vdt1Eoc-78" value="" style="rounded=0;whiteSpace=wrap;html=1;" parent="1" vertex="1">
          <mxGeometry x="590" y="150" width="60" height="60" as="geometry" />
        </mxCell>
        <mxCell id="djR4J-DLp6pO6Vdt1Eoc-79" value="-" style="rounded=0;whiteSpace=wrap;html=1;rotation=90;" parent="1" vertex="1">
          <mxGeometry x="605" y="150" width="10" height="10" as="geometry" />
        </mxCell>
        <mxCell id="djR4J-DLp6pO6Vdt1Eoc-80" value="+" style="rounded=0;whiteSpace=wrap;html=1;rotation=90;" parent="1" vertex="1">
          <mxGeometry x="615" y="150" width="10" height="10" as="geometry" />
        </mxCell>
        <mxCell id="djR4J-DLp6pO6Vdt1Eoc-81" value="&lt;font style=&quot;font-size: 6px;&quot;&gt;S&lt;/font&gt;" style="rounded=0;whiteSpace=wrap;html=1;rotation=90;" parent="1" vertex="1">
          <mxGeometry x="625" y="150" width="10" height="10" as="geometry" />
        </mxCell>
        <mxCell id="djR4J-DLp6pO6Vdt1Eoc-86" value="-" style="rounded=0;whiteSpace=wrap;html=1;rotation=90;" parent="1" vertex="1">
          <mxGeometry x="602.5" y="137.5" width="15" height="10" as="geometry" />
        </mxCell>
        <mxCell id="djR4J-DLp6pO6Vdt1Eoc-87" value="+" style="rounded=0;whiteSpace=wrap;html=1;rotation=90;" parent="1" vertex="1">
          <mxGeometry x="612.5" y="137.5" width="15" height="10" as="geometry" />
        </mxCell>
        <mxCell id="djR4J-DLp6pO6Vdt1Eoc-88" value="&lt;font style=&quot;font-size: 6px;&quot;&gt;S&lt;/font&gt;" style="rounded=0;whiteSpace=wrap;html=1;rotation=90;" parent="1" vertex="1">
          <mxGeometry x="622.5" y="137.5" width="15" height="10" as="geometry" />
        </mxCell>
        <mxCell id="KCw2Ev28wdb6OkQWKryQ-1" value="" style="rounded=0;whiteSpace=wrap;html=1;" parent="1" vertex="1">
          <mxGeometry x="660" y="150" width="60" height="60" as="geometry" />
        </mxCell>
        <mxCell id="KCw2Ev28wdb6OkQWKryQ-2" value="-" style="rounded=0;whiteSpace=wrap;html=1;rotation=90;" parent="1" vertex="1">
          <mxGeometry x="675" y="150" width="10" height="10" as="geometry" />
        </mxCell>
        <mxCell id="KCw2Ev28wdb6OkQWKryQ-3" value="+" style="rounded=0;whiteSpace=wrap;html=1;rotation=90;" parent="1" vertex="1">
          <mxGeometry x="685" y="150" width="10" height="10" as="geometry" />
        </mxCell>
        <mxCell id="KCw2Ev28wdb6OkQWKryQ-4" value="&lt;font style=&quot;font-size: 6px;&quot;&gt;S&lt;/font&gt;" style="rounded=0;whiteSpace=wrap;html=1;rotation=90;" parent="1" vertex="1">
          <mxGeometry x="695" y="150" width="10" height="10" as="geometry" />
        </mxCell>
        <mxCell id="KCw2Ev28wdb6OkQWKryQ-5" value="-" style="rounded=0;whiteSpace=wrap;html=1;rotation=90;" parent="1" vertex="1">
          <mxGeometry x="672.5" y="137.5" width="15" height="10" as="geometry" />
        </mxCell>
        <mxCell id="KCw2Ev28wdb6OkQWKryQ-6" value="+" style="rounded=0;whiteSpace=wrap;html=1;rotation=90;" parent="1" vertex="1">
          <mxGeometry x="682.5" y="137.5" width="15" height="10" as="geometry" />
        </mxCell>
        <mxCell id="KCw2Ev28wdb6OkQWKryQ-7" value="&lt;font style=&quot;font-size: 6px;&quot;&gt;S&lt;/font&gt;" style="rounded=0;whiteSpace=wrap;html=1;rotation=90;" parent="1" vertex="1">
          <mxGeometry x="692.5" y="137.5" width="15" height="10" as="geometry" />
        </mxCell>
        <mxCell id="djR4J-DLp6pO6Vdt1Eoc-53" value="" style="endArrow=none;dashed=1;html=1;dashPattern=1 3;strokeWidth=2;rounded=0;entryX=0.357;entryY=0.003;entryDx=0;entryDy=0;entryPerimeter=0;" parent="1" target="djR4J-DLp6pO6Vdt1Eoc-52" edge="1">
          <mxGeometry width="50" height="50" relative="1" as="geometry">
            <mxPoint x="532" y="370" as="sourcePoint" />
            <mxPoint x="529.31" y="199.65999999999997" as="targetPoint" />
          </mxGeometry>
        </mxCell>
      </root>
    </mxGraphModel>
  </diagram>
</mxfile>
